<svg xmlns="http://www.w3.org/2000/svg"  viewBox="0 0 96 96" width="32px" height="32px"><path fill="#4d4dff" d="M48.161,85.982c-1.091,0-2.205-0.038-3.344-0.116c-1.227-0.084-2.231-0.895-2.621-1.982 c-0.697,0.892-1.871,1.354-3.046,1.076C16,79.573,8.369,58.937,11.076,42.042c2.7-16.853,16.428-34.032,40.172-31.902 C76.889,12.771,86.9,33.266,85.367,51.195C83.902,68.329,71.651,85.981,48.161,85.982z M47.274,15.958 c-17.877,0-28.061,13.22-30.274,27.033c-2.28,14.233,4.104,31.609,23.509,36.125c1.031,0.24,1.813,0.984,2.146,1.912 c0.593-0.759,1.535-1.228,2.571-1.148c21.64,1.478,32.872-14.096,34.163-29.195c1.291-15.099-7.144-32.358-28.714-34.572 C49.512,16.009,48.378,15.958,47.274,15.958z" opacity=".3"/><path fill="#4d4dff" d="M48.142,84.981c-1.063,0-2.148-0.037-3.257-0.113c-1.102-0.075-1.934-1.029-1.858-2.132 c0.075-1.102,1.026-1.924,2.132-1.858c22.308,1.52,33.896-14.537,35.227-30.108c1.332-15.57-7.366-33.369-29.608-35.652 c-20.644-1.838-32.341,12.591-34.764,27.716C13.661,57.51,20.253,75.43,40.283,80.09c1.076,0.251,1.745,1.326,1.495,2.401 c-0.25,1.076-1.328,1.741-2.401,1.495C16.851,78.744,9.428,58.651,12.063,42.2c2.629-16.409,15.986-33.111,39.096-31.064 c24.957,2.562,34.705,22.517,33.212,39.975C82.944,67.793,71.015,84.981,48.142,84.981z" opacity=".3"/><path fill="#4d4dff" d="M48.122,83.98c-1.035,0-2.088-0.036-3.169-0.109c-0.551-0.038-0.967-0.516-0.929-1.066 c0.038-0.551,0.516-0.942,1.066-0.93c22.979,1.57,34.92-14.978,36.292-31.021c1.372-16.042-7.588-34.38-30.502-36.731 c-21.184-1.895-33.438,13.475-35.854,28.552c-2.422,15.12,4.377,33.583,25.031,38.39c0.538,0.125,0.873,0.662,0.748,1.2 s-0.665,0.877-1.201,0.747C17.701,77.916,10.486,58.366,13.05,42.358c2.558-15.965,15.547-32.232,38.02-30.227 c24.271,2.491,33.756,21.907,32.304,38.894C81.986,67.256,70.376,83.979,48.122,83.98z"/><g><path fill="#0fd2ff" d="M45,80.5c-0.797,0-1.592-0.315-2.182-0.94c-0.999-1.059-0.995-1.338-0.911-8.505 c0.041-3.452,0.117-9.976-0.159-13.095c-0.027,0.002-0.054,0.003-0.08,0.005c-2.418,0.141-5.425,0.321-7.318-1.54 c-0.928-0.913-1.407-2.175-1.348-3.553c0.005-0.126,0.019-0.252,0.04-0.376c0.017-0.175-0.018-0.807-0.044-1.268 c-0.118-2.095-0.278-4.962,1.512-6.818c0.639-0.663,1.747-1.444,3.549-1.409l0.783,0.016c1.182,0.024,2.393,0.051,3.165,0.015 c0.022-0.587,0.014-1.407,0.005-2.161C42.006,40.307,42,39.686,42,39c0-3.929,1.538-7.614,4.331-10.378 c2.973-2.943,7.166-4.623,11.526-4.623c0.058,0,0.116,0.001,0.174,0.001c1.435,0.015,2.691,0.558,3.635,1.57 c2.038,2.188,1.819,5.804,1.674,8.196c-0.024,0.407-0.05,0.757-0.046,1.007c0.042,2.333-0.843,5.143-5.293,5.273 c-0.22,0.007-0.527,0.016-0.718,0.041c-0.119,0.265-0.379,1.068-0.363,2.995c0.528-0.014,1.089-0.05,1.453-0.073 c1.067-0.067,1.851-0.118,2.557,0.01c1.525,0.124,2.802,0.808,3.622,1.945c1.753,2.436,0.704,5.865,0.01,8.135 c-0.119,0.389-0.228,0.727-0.283,0.98c-1.002,4.548-5.521,4.166-7.007,4.046c-0.102-0.009-0.202-0.018-0.299-0.026 c-0.017,0.204-0.03,0.471-0.034,0.819c-0.03,2.59,0.04,6.195,0.102,9.377c0.177,9.122,0.159,9.416-0.62,10.479 c-0.98,1.337-2.857,1.626-4.193,0.645c-1.022-0.75-1.431-2.023-1.128-3.18c0.075-1.024,0.002-4.78-0.057-7.827 c-0.063-3.225-0.133-6.88-0.103-9.563c0.052-4.492,1.935-6.771,5.596-6.771c0.373,0,0.795,0.031,1.239,0.068 c0.223,0.019,0.53,0.045,0.797,0.054c0.073-0.26,0.16-0.547,0.254-0.855c0.166-0.543,0.487-1.593,0.629-2.389 c-0.227,0.012-0.482,0.028-0.698,0.042c-2.372,0.151-5.063,0.323-6.68-1.311c-0.701-0.707-1.077-1.629-1.077-2.619 c-0.31-4.509,0.271-7.318,1.878-9.099c1.427-1.58,3.231-1.838,4.438-1.9c0.01-0.206,0.022-0.429,0.037-0.665 c0.044-0.728,0.148-2.456-0.019-3.393c-2.597,0.122-5.04,1.151-6.78,2.874C49.387,34.038,48,36.034,48,39 c0,0.662,0.006,1.263,0.012,1.807c0.033,3.094,0.054,5.138-1.532,6.707c-1.615,1.6-3.736,1.592-7.542,1.506 c-0.021,0.601,0.023,1.377,0.051,1.872c0.023,0.404,0.044,0.785,0.052,1.148c0.709,0.025,1.667-0.028,2.272-0.064 c1.345-0.081,2.506-0.148,3.516,0.142c3.046,0.876,3.258,3.675,3.078,19.009c-0.026,2.261-0.056,4.804-0.004,5.614 c0.268,1.026-0.019,2.162-0.844,2.941C46.479,80.229,45.739,80.5,45,80.5z M47.192,75.452 C47.193,75.452,47.193,75.453,47.192,75.452C47.193,75.453,47.193,75.452,47.192,75.452z M47.188,75.448 c0.001,0.001,0.002,0.002,0.002,0.003C47.19,75.45,47.189,75.449,47.188,75.448z M47.185,75.444 c0.001,0.001,0.002,0.002,0.003,0.003C47.187,75.446,47.186,75.445,47.185,75.444z M47.182,75.44 c0.001,0.001,0.002,0.003,0.003,0.004C47.184,75.443,47.183,75.441,47.182,75.44z M51.577,75.231L51.577,75.231L51.577,75.231z M51.581,75.226c-0.001,0.001-0.001,0.002-0.002,0.003C51.58,75.228,51.58,75.227,51.581,75.226z M57.286,35.12L57.286,35.12 L57.286,35.12z" opacity=".3"/><path fill="#0fd2ff" d="M45,79.5c-0.531,0-1.062-0.21-1.455-0.627c-0.721-0.765-0.718-1.028-0.638-7.806 c0.045-3.87,0.135-11.457-0.272-14.154c-0.34,0.013-0.721,0.035-1.026,0.054c-2.335,0.135-4.981,0.295-6.557-1.255 c-0.512-0.504-1.11-1.398-1.05-2.798c0.003-0.083,0.012-0.167,0.026-0.25c0.04-0.23-0.001-0.96-0.031-1.492 c-0.113-2.017-0.254-4.525,1.233-6.068c0.501-0.519,1.404-1.092,2.809-1.104l0.782,0.017c1.793,0.038,3.492,0.073,4.101-0.084 c0.118-0.511,0.104-1.812,0.09-3.073C43.006,40.3,43,39.682,43,39c0-3.659,1.433-7.093,4.034-9.667 c2.788-2.76,6.724-4.334,10.823-4.334c0.054,0,0.109,0.001,0.164,0.001c1.154,0.012,2.161,0.445,2.914,1.252 c1.745,1.874,1.542,5.231,1.407,7.454c-0.026,0.439-0.052,0.815-0.048,1.085c0.074,4.127-3.12,4.221-4.323,4.257 c-0.794,0.023-1.189,0.058-1.384,0.273c-0.202,0.223-0.809,1.203-0.639,4.753c0.735,0.047,1.864-0.026,2.488-0.066 c1.056-0.066,1.766-0.112,2.359,0.004c1.591,0.11,2.477,0.888,2.944,1.537c1.464,2.034,0.541,5.054-0.134,7.258 c-0.128,0.42-0.243,0.785-0.303,1.058c-0.814,3.695-4.408,3.393-5.947,3.265c-0.541-0.045-1.076-0.048-1.213-0.016 c-0.062,0.141-0.189,0.576-0.204,1.794c-0.03,2.605,0.04,6.22,0.102,9.408c0.175,9.047,0.118,9.125-0.426,9.867 c-0.654,0.891-1.905,1.083-2.796,0.43c-0.704-0.517-0.972-1.406-0.73-2.196c0.09-0.926,0.015-4.848-0.047-8.023 c-0.062-3.218-0.133-6.864-0.102-9.532c0.019-1.581,0.067-5.782,4.596-5.782c0.348,0,0.741,0.03,1.155,0.064 c0.488,0.041,1.382,0.116,1.674-0.006c0-0.015,0.016-0.061,0.032-0.134c0.078-0.353,0.219-0.825,0.385-1.366 c0.245-0.803,0.869-2.842,0.732-3.635c-0.018-0.001-0.037-0.002-0.057-0.003c-0.144-0.004-0.286-0.022-0.425-0.057 C59.78,47.927,59.155,47.97,58.69,48c-2.265,0.145-4.608,0.294-5.906-1.016c-0.519-0.524-0.794-1.209-0.787-1.946 c-0.296-4.238,0.205-6.831,1.621-8.397c1.36-1.507,3.16-1.56,4.235-1.592c0.13-0.003,0.294-0.008,0.44-0.017 c0.001-0.05,0.002-0.106,0.001-0.17c-0.006-0.348,0.02-0.832,0.054-1.397c0.158-2.606,0.042-4.116-0.343-4.487 c-0.012,0-0.024,0-0.036,0c-3.109,0-6.059,1.156-8.122,3.198C47.985,34.02,47,36.38,47,39c0,0.666,0.006,1.271,0.012,1.817 c0.031,2.939,0.05,4.714-1.235,5.985c-1.346,1.332-3.248,1.294-7.04,1.213l-0.671-0.014c-0.206,0.612-0.119,2.164-0.075,2.946 c0.041,0.734,0.078,1.389,0.032,1.967c0.716,0.215,2.463,0.11,3.349,0.059c1.304-0.078,2.335-0.139,3.181,0.104 c2.105,0.605,2.54,2.227,2.354,18.036c-0.028,2.377-0.059,5.056,0.006,5.799c0.215,0.704,0.032,1.502-0.54,2.041 C45.986,79.319,45.493,79.5,45,79.5z M52.385,75.821C52.384,75.821,52.384,75.821,52.385,75.821 C52.384,75.821,52.384,75.821,52.385,75.821z M52.387,75.817c0,0-0.001,0.001-0.001,0.002 C52.386,75.818,52.387,75.817,52.387,75.817z M59.847,47.888c0,0.001,0.001,0.001,0.001,0.001 C59.848,47.889,59.848,47.889,59.847,47.888z" opacity=".3"/><path fill="#0fd2ff" d="M45,78.5c-0.266,0-0.53-0.105-0.727-0.313c-0.402-0.426-0.444-0.47-0.366-7.107 c0.051-4.394,0.157-13.334-0.46-15.161c-0.454-0.035-1.212,0.01-1.897,0.05c-2.128,0.127-4.538,0.271-5.797-0.97 c-0.368-0.361-0.797-1.009-0.752-2.041c0.002-0.042,0.006-0.084,0.013-0.125c0.058-0.342,0.019-1.04-0.019-1.716 c-0.102-1.822-0.229-4.09,0.955-5.318c0.362-0.376,1.021-0.789,2.069-0.798l0.78,0.017c2.663,0.053,4.424,0.093,4.867-0.346 c0.382-0.378,0.367-1.823,0.346-3.822C44.006,40.292,44,39.678,44,39c0-3.391,1.327-6.571,3.737-8.957 c2.636-2.608,6.402-4.071,10.273-4.043c0.873,0.009,1.631,0.332,2.192,0.934c1.453,1.56,1.265,4.66,1.141,6.712 c-0.029,0.471-0.055,0.874-0.049,1.163c0.056,3.139-2.078,3.202-3.353,3.239c-0.992,0.029-1.628,0.085-2.097,0.603 c-0.55,0.609-1.143,2.189-0.848,6.268c0.591,0.273,2.612,0.145,3.503,0.088c1.07-0.067,1.707-0.103,2.159,0 c1.249,0.067,1.922,0.646,2.269,1.127c1.174,1.632,0.334,4.377-0.279,6.382c-0.138,0.449-0.259,0.842-0.324,1.135 c-0.626,2.84-3.398,2.606-4.887,2.483c-0.324-0.027-0.632-0.055-0.904-0.055c-1.027,0-1.564,0.125-1.596,2.817 c-0.03,2.621,0.04,6.243,0.102,9.439c0.164,8.442,0.105,8.796-0.233,9.257c-0.326,0.444-0.953,0.542-1.397,0.215 c-0.374-0.274-0.502-0.76-0.34-1.171c0.116-0.749,0.039-4.735-0.029-8.262c-0.062-3.211-0.133-6.85-0.102-9.502 c0.02-1.676,0.056-4.794,3.596-4.794c0.323,0,0.688,0.029,1.071,0.062c1.891,0.159,2.553,0.047,2.767-0.921 c0.073-0.333,0.208-0.778,0.364-1.289c0.406-1.329,1.163-3.802,0.568-4.628C61.253,47.23,61.098,47.016,60.48,47 c-0.104-0.003-0.206-0.021-0.303-0.056c-0.173-0.03-0.968,0.021-1.55,0.058c-2.434,0.157-4.225,0.194-5.132-0.722 c-0.335-0.339-0.51-0.786-0.497-1.268c-0.278-3.918,0.155-6.366,1.362-7.702c1.074-1.189,2.489-1.231,3.522-1.262 c1.324-0.039,1.433-0.042,1.412-1.205c-0.006-0.327,0.021-0.785,0.053-1.318c0.091-1.502,0.26-4.297-0.608-5.229 c-0.127-0.136-0.327-0.293-0.749-0.297c-0.044-0.001-0.089-0.001-0.134-0.001c-3.314,0-6.482,1.259-8.712,3.466 C47.117,33.472,46,36.147,46,39c0,0.67,0.006,1.277,0.012,1.827c0.029,2.768,0.045,4.291-0.939,5.266 c-1.044,1.034-2.696,0.999-6.315,0.923L37.98,47c-0.358-0.006-0.503,0.096-0.59,0.187c-0.578,0.6-0.469,2.536-0.397,3.817 c0.046,0.82,0.086,1.534,0.005,2.088c-0.003,0.322,0.109,0.433,0.158,0.48c0.626,0.616,2.822,0.486,4.276,0.399 c1.209-0.072,2.164-0.128,2.845,0.067c1.436,0.413,1.801,2.583,1.63,17.063c-0.031,2.662-0.063,5.413,0.022,6.026 c0.148,0.37,0.065,0.809-0.242,1.099C45.493,78.409,45.247,78.5,45,78.5z M45.73,76.816C45.73,76.816,45.73,76.817,45.73,76.816 C45.73,76.817,45.73,76.816,45.73,76.816z M45.727,76.813c0.001,0.001,0.001,0.002,0.002,0.002 C45.729,76.815,45.728,76.814,45.727,76.813z M53.061,76.682L53.061,76.682L53.061,76.682z M53.191,76.412L53.191,76.412 L53.191,76.412z M53.194,76.408c0,0.001-0.001,0.002-0.002,0.003C53.192,76.41,53.193,76.409,53.194,76.408z"/></g></svg>